<mxfile host="Electron" agent="Mozilla/5.0 (Windows NT 10.0; Win64; x64) AppleWebKit/537.36 (KHTML, like Gecko) draw.io/26.0.9 Chrome/128.0.6613.186 Electron/32.2.5 Safari/537.36" version="26.0.9">
  <diagram name="Страница — 1" id="Hr8bVBeTard7JOVQPiOV">
    <mxGraphModel dx="1793" dy="1045" grid="1" gridSize="10" guides="1" tooltips="1" connect="1" arrows="1" fold="1" page="1" pageScale="1" pageWidth="827" pageHeight="1169" math="0" shadow="0">
      <root>
        <mxCell id="0" />
        <mxCell id="1" parent="0" />
        <mxCell id="Sqh9jJfDOOYjsBS7LKp8-1" style="edgeStyle=orthogonalEdgeStyle;rounded=0;orthogonalLoop=1;jettySize=auto;html=1;exitX=0.5;exitY=1;exitDx=0;exitDy=0;" edge="1" parent="1" source="Sqh9jJfDOOYjsBS7LKp8-2">
          <mxGeometry relative="1" as="geometry">
            <mxPoint x="1440.2127659574467" y="160" as="targetPoint" />
          </mxGeometry>
        </mxCell>
        <mxCell id="Sqh9jJfDOOYjsBS7LKp8-2" value="struct Node" style="shape=process;whiteSpace=wrap;html=1;backgroundOutline=1;" vertex="1" parent="1">
          <mxGeometry x="1380" y="110" width="120" height="30" as="geometry" />
        </mxCell>
        <mxCell id="Sqh9jJfDOOYjsBS7LKp8-3" value="char data;" style="rounded=0;whiteSpace=wrap;html=1;" vertex="1" parent="1">
          <mxGeometry x="1380" y="160" width="120" height="30" as="geometry" />
        </mxCell>
        <mxCell id="Sqh9jJfDOOYjsBS7LKp8-4" style="edgeStyle=orthogonalEdgeStyle;rounded=0;orthogonalLoop=1;jettySize=auto;html=1;exitX=0.5;exitY=1;exitDx=0;exitDy=0;" edge="1" parent="1">
          <mxGeometry relative="1" as="geometry">
            <mxPoint x="1440.2127659574467" y="210" as="targetPoint" />
            <mxPoint x="1440" y="190" as="sourcePoint" />
          </mxGeometry>
        </mxCell>
        <mxCell id="Sqh9jJfDOOYjsBS7LKp8-5" value="Node* next;" style="rounded=0;whiteSpace=wrap;html=1;" vertex="1" parent="1">
          <mxGeometry x="1380" y="210" width="120" height="30" as="geometry" />
        </mxCell>
        <mxCell id="Sqh9jJfDOOYjsBS7LKp8-6" style="edgeStyle=orthogonalEdgeStyle;rounded=0;orthogonalLoop=1;jettySize=auto;html=1;exitX=0.5;exitY=1;exitDx=0;exitDy=0;" edge="1" parent="1" source="Sqh9jJfDOOYjsBS7LKp8-7">
          <mxGeometry relative="1" as="geometry">
            <mxPoint x="1241.2127659574467" y="160" as="targetPoint" />
          </mxGeometry>
        </mxCell>
        <mxCell id="Sqh9jJfDOOYjsBS7LKp8-7" value="struct Stack" style="shape=process;whiteSpace=wrap;html=1;backgroundOutline=1;" vertex="1" parent="1">
          <mxGeometry x="1181" y="110" width="120" height="30" as="geometry" />
        </mxCell>
        <mxCell id="Sqh9jJfDOOYjsBS7LKp8-8" value="int size = 0;" style="rounded=0;whiteSpace=wrap;html=1;" vertex="1" parent="1">
          <mxGeometry x="1181" y="160" width="120" height="30" as="geometry" />
        </mxCell>
        <mxCell id="Sqh9jJfDOOYjsBS7LKp8-9" style="edgeStyle=orthogonalEdgeStyle;rounded=0;orthogonalLoop=1;jettySize=auto;html=1;exitX=0.5;exitY=1;exitDx=0;exitDy=0;" edge="1" parent="1">
          <mxGeometry relative="1" as="geometry">
            <mxPoint x="1241.2127659574467" y="210" as="targetPoint" />
            <mxPoint x="1241" y="190" as="sourcePoint" />
          </mxGeometry>
        </mxCell>
        <mxCell id="Sqh9jJfDOOYjsBS7LKp8-10" value="Node* head = nullptr;" style="rounded=0;whiteSpace=wrap;html=1;" vertex="1" parent="1">
          <mxGeometry x="1181" y="210" width="120" height="30" as="geometry" />
        </mxCell>
        <mxCell id="Sqh9jJfDOOYjsBS7LKp8-11" value="{" style="text;html=1;align=center;verticalAlign=middle;resizable=0;points=[];autosize=1;strokeColor=none;fillColor=none;" vertex="1" parent="1">
          <mxGeometry x="1155" y="138" width="30" height="30" as="geometry" />
        </mxCell>
        <mxCell id="Sqh9jJfDOOYjsBS7LKp8-12" value="};" style="text;html=1;align=center;verticalAlign=middle;resizable=0;points=[];autosize=1;strokeColor=none;fillColor=none;" vertex="1" parent="1">
          <mxGeometry x="1260" y="240" width="30" height="30" as="geometry" />
        </mxCell>
        <mxCell id="Sqh9jJfDOOYjsBS7LKp8-13" value="{" style="text;html=1;align=center;verticalAlign=middle;resizable=0;points=[];autosize=1;strokeColor=none;fillColor=none;" vertex="1" parent="1">
          <mxGeometry x="1365" y="138" width="30" height="30" as="geometry" />
        </mxCell>
        <mxCell id="Sqh9jJfDOOYjsBS7LKp8-14" value="};" style="text;html=1;align=center;verticalAlign=middle;resizable=0;points=[];autosize=1;strokeColor=none;fillColor=none;" vertex="1" parent="1">
          <mxGeometry x="1440" y="240" width="30" height="30" as="geometry" />
        </mxCell>
        <mxCell id="Sqh9jJfDOOYjsBS7LKp8-15" style="edgeStyle=orthogonalEdgeStyle;rounded=0;orthogonalLoop=1;jettySize=auto;html=1;exitX=0.5;exitY=1;exitDx=0;exitDy=0;" edge="1" parent="1" source="Sqh9jJfDOOYjsBS7LKp8-16">
          <mxGeometry relative="1" as="geometry">
            <mxPoint x="1680" y="160" as="targetPoint" />
          </mxGeometry>
        </mxCell>
        <mxCell id="Sqh9jJfDOOYjsBS7LKp8-16" value="void init(Stack&amp;amp; s, char value)" style="shape=process;whiteSpace=wrap;html=1;backgroundOutline=1;" vertex="1" parent="1">
          <mxGeometry x="1620" y="110" width="120" height="30" as="geometry" />
        </mxCell>
        <mxCell id="Sqh9jJfDOOYjsBS7LKp8-17" value="Node* newNode = new Node;" style="rounded=0;whiteSpace=wrap;html=1;" vertex="1" parent="1">
          <mxGeometry x="1620" y="160" width="120" height="30" as="geometry" />
        </mxCell>
        <mxCell id="Sqh9jJfDOOYjsBS7LKp8-18" style="edgeStyle=orthogonalEdgeStyle;rounded=0;orthogonalLoop=1;jettySize=auto;html=1;exitX=0.5;exitY=1;exitDx=0;exitDy=0;" edge="1" parent="1">
          <mxGeometry relative="1" as="geometry">
            <mxPoint x="1680" y="210" as="targetPoint" />
            <mxPoint x="1680" y="190" as="sourcePoint" />
          </mxGeometry>
        </mxCell>
        <mxCell id="Sqh9jJfDOOYjsBS7LKp8-19" style="edgeStyle=orthogonalEdgeStyle;rounded=0;orthogonalLoop=1;jettySize=auto;html=1;exitX=0.5;exitY=1;exitDx=0;exitDy=0;" edge="1" parent="1" source="Sqh9jJfDOOYjsBS7LKp8-20">
          <mxGeometry relative="1" as="geometry">
            <mxPoint x="1679.8571428571427" y="260" as="targetPoint" />
          </mxGeometry>
        </mxCell>
        <mxCell id="Sqh9jJfDOOYjsBS7LKp8-20" value="&amp;nbsp;strcpy(newNode-&amp;gt;data, value);" style="rounded=0;whiteSpace=wrap;html=1;" vertex="1" parent="1">
          <mxGeometry x="1630" y="210" width="100" height="30" as="geometry" />
        </mxCell>
        <mxCell id="Sqh9jJfDOOYjsBS7LKp8-21" value="newNode-&gt;next = nullptr;" style="rounded=0;whiteSpace=wrap;html=1;" vertex="1" parent="1">
          <mxGeometry x="1628" y="260" width="120" height="30" as="geometry" />
        </mxCell>
        <mxCell id="Sqh9jJfDOOYjsBS7LKp8-22" style="edgeStyle=orthogonalEdgeStyle;rounded=0;orthogonalLoop=1;jettySize=auto;html=1;exitX=0.5;exitY=1;exitDx=0;exitDy=0;" edge="1" parent="1">
          <mxGeometry relative="1" as="geometry">
            <mxPoint x="1688" y="310" as="targetPoint" />
            <mxPoint x="1688" y="290" as="sourcePoint" />
          </mxGeometry>
        </mxCell>
        <mxCell id="Sqh9jJfDOOYjsBS7LKp8-23" style="edgeStyle=orthogonalEdgeStyle;rounded=0;orthogonalLoop=1;jettySize=auto;html=1;exitX=0.5;exitY=1;exitDx=0;exitDy=0;" edge="1" parent="1" source="Sqh9jJfDOOYjsBS7LKp8-24">
          <mxGeometry relative="1" as="geometry">
            <mxPoint x="1687.8571428571427" y="360" as="targetPoint" />
          </mxGeometry>
        </mxCell>
        <mxCell id="Sqh9jJfDOOYjsBS7LKp8-24" value="s.head = newNode;" style="rounded=0;whiteSpace=wrap;html=1;" vertex="1" parent="1">
          <mxGeometry x="1638" y="310" width="100" height="30" as="geometry" />
        </mxCell>
        <mxCell id="Sqh9jJfDOOYjsBS7LKp8-25" style="edgeStyle=orthogonalEdgeStyle;rounded=0;orthogonalLoop=1;jettySize=auto;html=1;exitX=0.5;exitY=1;exitDx=0;exitDy=0;" edge="1" parent="1">
          <mxGeometry relative="1" as="geometry">
            <mxPoint x="1688" y="360" as="targetPoint" />
            <mxPoint x="1688" y="340" as="sourcePoint" />
          </mxGeometry>
        </mxCell>
        <mxCell id="Sqh9jJfDOOYjsBS7LKp8-26" value="s.size = 1;" style="rounded=0;whiteSpace=wrap;html=1;" vertex="1" parent="1">
          <mxGeometry x="1628" y="360" width="120" height="30" as="geometry" />
        </mxCell>
        <mxCell id="Sqh9jJfDOOYjsBS7LKp8-27" style="edgeStyle=orthogonalEdgeStyle;rounded=0;orthogonalLoop=1;jettySize=auto;html=1;exitX=0.5;exitY=1;exitDx=0;exitDy=0;" edge="1" parent="1">
          <mxGeometry relative="1" as="geometry">
            <mxPoint x="1688" y="410" as="targetPoint" />
            <mxPoint x="1688" y="390" as="sourcePoint" />
          </mxGeometry>
        </mxCell>
        <mxCell id="Sqh9jJfDOOYjsBS7LKp8-28" value="return;" style="ellipse;whiteSpace=wrap;html=1;" vertex="1" parent="1">
          <mxGeometry x="1628" y="409" width="120" height="40" as="geometry" />
        </mxCell>
        <mxCell id="Sqh9jJfDOOYjsBS7LKp8-29" value="{" style="text;html=1;align=center;verticalAlign=middle;resizable=0;points=[];autosize=1;strokeColor=none;fillColor=none;" vertex="1" parent="1">
          <mxGeometry x="1560" y="138" width="30" height="30" as="geometry" />
        </mxCell>
        <mxCell id="Sqh9jJfDOOYjsBS7LKp8-30" value="}" style="text;html=1;align=center;verticalAlign=middle;resizable=0;points=[];autosize=1;strokeColor=none;fillColor=none;" vertex="1" parent="1">
          <mxGeometry x="1745" y="425" width="30" height="30" as="geometry" />
        </mxCell>
        <mxCell id="Sqh9jJfDOOYjsBS7LKp8-32" style="edgeStyle=orthogonalEdgeStyle;rounded=0;orthogonalLoop=1;jettySize=auto;html=1;exitX=0.5;exitY=1;exitDx=0;exitDy=0;" edge="1" parent="1" source="Sqh9jJfDOOYjsBS7LKp8-31">
          <mxGeometry relative="1" as="geometry">
            <mxPoint x="2040" y="160" as="targetPoint" />
          </mxGeometry>
        </mxCell>
        <mxCell id="Sqh9jJfDOOYjsBS7LKp8-31" value="bool flag(char opening, char closing)" style="shape=process;whiteSpace=wrap;html=1;backgroundOutline=1;" vertex="1" parent="1">
          <mxGeometry x="1940" y="108" width="200" height="30" as="geometry" />
        </mxCell>
        <mxCell id="Sqh9jJfDOOYjsBS7LKp8-33" value="&lt;div&gt;return (opening == &#39;(&#39; &amp;amp;&amp;amp; closing == &#39;)&#39;) ||&lt;/div&gt;&lt;div&gt;&amp;nbsp; &amp;nbsp; (opening == &#39;{&#39; &amp;amp;&amp;amp; closing == &#39;}&#39;) ||&lt;/div&gt;&lt;div&gt;&amp;nbsp; &amp;nbsp; (opening == &#39;[&#39; &amp;amp;&amp;amp; closing == &#39;]&#39;);&lt;/div&gt;" style="ellipse;whiteSpace=wrap;html=1;" vertex="1" parent="1">
          <mxGeometry x="1890" y="160" width="310" height="60" as="geometry" />
        </mxCell>
        <mxCell id="Sqh9jJfDOOYjsBS7LKp8-34" style="edgeStyle=orthogonalEdgeStyle;rounded=0;orthogonalLoop=1;jettySize=auto;html=1;exitX=0.5;exitY=1;exitDx=0;exitDy=0;" edge="1" parent="1" source="Sqh9jJfDOOYjsBS7LKp8-35">
          <mxGeometry relative="1" as="geometry">
            <mxPoint x="1245" y="370" as="targetPoint" />
          </mxGeometry>
        </mxCell>
        <mxCell id="Sqh9jJfDOOYjsBS7LKp8-35" value="void print(Stack s)" style="shape=process;whiteSpace=wrap;html=1;backgroundOutline=1;" vertex="1" parent="1">
          <mxGeometry x="1185" y="320" width="120" height="30" as="geometry" />
        </mxCell>
        <mxCell id="Sqh9jJfDOOYjsBS7LKp8-36" value="Node* temp = s.head;" style="rounded=0;whiteSpace=wrap;html=1;" vertex="1" parent="1">
          <mxGeometry x="1185" y="370" width="120" height="30" as="geometry" />
        </mxCell>
        <mxCell id="Sqh9jJfDOOYjsBS7LKp8-37" style="edgeStyle=orthogonalEdgeStyle;rounded=0;orthogonalLoop=1;jettySize=auto;html=1;exitX=0.5;exitY=1;exitDx=0;exitDy=0;" edge="1" parent="1">
          <mxGeometry relative="1" as="geometry">
            <mxPoint x="1245" y="420" as="targetPoint" />
            <mxPoint x="1245" y="400" as="sourcePoint" />
          </mxGeometry>
        </mxCell>
        <mxCell id="Sqh9jJfDOOYjsBS7LKp8-38" value="" style="edgeStyle=orthogonalEdgeStyle;rounded=0;orthogonalLoop=1;jettySize=auto;html=1;" edge="1" parent="1">
          <mxGeometry relative="1" as="geometry">
            <mxPoint x="1244.9714285714285" y="400" as="sourcePoint" />
            <mxPoint x="1244.9714285714285" y="420" as="targetPoint" />
          </mxGeometry>
        </mxCell>
        <mxCell id="Sqh9jJfDOOYjsBS7LKp8-39" style="edgeStyle=orthogonalEdgeStyle;rounded=0;orthogonalLoop=1;jettySize=auto;html=1;exitX=0.5;exitY=1;exitDx=0;exitDy=0;" edge="1" parent="1" source="Sqh9jJfDOOYjsBS7LKp8-41">
          <mxGeometry relative="1" as="geometry">
            <mxPoint x="1245.238095238095" y="490" as="targetPoint" />
          </mxGeometry>
        </mxCell>
        <mxCell id="Sqh9jJfDOOYjsBS7LKp8-40" style="edgeStyle=orthogonalEdgeStyle;rounded=0;orthogonalLoop=1;jettySize=auto;html=1;exitX=1;exitY=0.5;exitDx=0;exitDy=0;" edge="1" parent="1" source="Sqh9jJfDOOYjsBS7LKp8-41">
          <mxGeometry relative="1" as="geometry">
            <mxPoint x="1445" y="480" as="targetPoint" />
          </mxGeometry>
        </mxCell>
        <mxCell id="Sqh9jJfDOOYjsBS7LKp8-41" value="while (temp != nullptr)" style="rhombus;whiteSpace=wrap;html=1;" vertex="1" parent="1">
          <mxGeometry x="1165" y="420" width="160" height="50" as="geometry" />
        </mxCell>
        <mxCell id="Sqh9jJfDOOYjsBS7LKp8-42" value="cout &amp;lt;&amp;lt; temp-&amp;gt;data &amp;lt;&amp;lt; &#39; &#39;;" style="shape=parallelogram;perimeter=parallelogramPerimeter;whiteSpace=wrap;html=1;fixedSize=1;" vertex="1" parent="1">
          <mxGeometry x="1155" y="490" width="170" height="30" as="geometry" />
        </mxCell>
        <mxCell id="Sqh9jJfDOOYjsBS7LKp8-43" style="edgeStyle=orthogonalEdgeStyle;rounded=0;orthogonalLoop=1;jettySize=auto;html=1;exitX=0.5;exitY=1;exitDx=0;exitDy=0;" edge="1" parent="1">
          <mxGeometry relative="1" as="geometry">
            <mxPoint x="1245.238095238095" y="540" as="targetPoint" />
            <mxPoint x="1245" y="520" as="sourcePoint" />
          </mxGeometry>
        </mxCell>
        <mxCell id="Sqh9jJfDOOYjsBS7LKp8-44" style="edgeStyle=orthogonalEdgeStyle;rounded=0;orthogonalLoop=1;jettySize=auto;html=1;exitX=0.5;exitY=1;exitDx=0;exitDy=0;entryX=0;entryY=0.5;entryDx=0;entryDy=0;" edge="1" parent="1" source="Sqh9jJfDOOYjsBS7LKp8-45" target="Sqh9jJfDOOYjsBS7LKp8-41">
          <mxGeometry relative="1" as="geometry">
            <Array as="points">
              <mxPoint x="1240" y="600" />
              <mxPoint x="1145" y="600" />
              <mxPoint x="1145" y="445" />
            </Array>
          </mxGeometry>
        </mxCell>
        <mxCell id="Sqh9jJfDOOYjsBS7LKp8-45" value="temp = temp-&amp;gt;next;" style="shape=parallelogram;perimeter=parallelogramPerimeter;whiteSpace=wrap;html=1;fixedSize=1;" vertex="1" parent="1">
          <mxGeometry x="1155" y="540" width="170" height="40" as="geometry" />
        </mxCell>
        <mxCell id="Sqh9jJfDOOYjsBS7LKp8-46" style="edgeStyle=orthogonalEdgeStyle;rounded=0;orthogonalLoop=1;jettySize=auto;html=1;exitX=0.5;exitY=1;exitDx=0;exitDy=0;" edge="1" parent="1" source="Sqh9jJfDOOYjsBS7LKp8-47">
          <mxGeometry relative="1" as="geometry">
            <mxPoint x="1440.1428571428573" y="530" as="targetPoint" />
          </mxGeometry>
        </mxCell>
        <mxCell id="Sqh9jJfDOOYjsBS7LKp8-47" value="cout &amp;lt;&amp;lt; endl;" style="shape=parallelogram;perimeter=parallelogramPerimeter;whiteSpace=wrap;html=1;fixedSize=1;" vertex="1" parent="1">
          <mxGeometry x="1355" y="480" width="170" height="30" as="geometry" />
        </mxCell>
        <mxCell id="Sqh9jJfDOOYjsBS7LKp8-48" value="return;" style="ellipse;whiteSpace=wrap;html=1;" vertex="1" parent="1">
          <mxGeometry x="1380" y="530" width="120" height="40" as="geometry" />
        </mxCell>
        <mxCell id="Sqh9jJfDOOYjsBS7LKp8-49" value="{" style="text;html=1;align=center;verticalAlign=middle;resizable=0;points=[];autosize=1;strokeColor=none;fillColor=none;" vertex="1" parent="1">
          <mxGeometry x="1140" y="338" width="30" height="30" as="geometry" />
        </mxCell>
        <mxCell id="Sqh9jJfDOOYjsBS7LKp8-50" value="}" style="text;html=1;align=center;verticalAlign=middle;resizable=0;points=[];autosize=1;strokeColor=none;fillColor=none;" vertex="1" parent="1">
          <mxGeometry x="1420" y="578" width="30" height="30" as="geometry" />
        </mxCell>
        <mxCell id="Sqh9jJfDOOYjsBS7LKp8-51" value="{" style="text;html=1;align=center;verticalAlign=middle;resizable=0;points=[];autosize=1;strokeColor=none;fillColor=none;" vertex="1" parent="1">
          <mxGeometry x="1180" y="468" width="30" height="30" as="geometry" />
        </mxCell>
        <mxCell id="Sqh9jJfDOOYjsBS7LKp8-52" value="}" style="text;html=1;align=center;verticalAlign=middle;resizable=0;points=[];autosize=1;strokeColor=none;fillColor=none;" vertex="1" parent="1">
          <mxGeometry x="1250" y="578" width="30" height="30" as="geometry" />
        </mxCell>
        <mxCell id="Sqh9jJfDOOYjsBS7LKp8-53" style="edgeStyle=orthogonalEdgeStyle;rounded=0;orthogonalLoop=1;jettySize=auto;html=1;exitX=0.5;exitY=1;exitDx=0;exitDy=0;" edge="1" parent="1" source="Sqh9jJfDOOYjsBS7LKp8-54">
          <mxGeometry relative="1" as="geometry">
            <mxPoint x="1225" y="700" as="targetPoint" />
          </mxGeometry>
        </mxCell>
        <mxCell id="Sqh9jJfDOOYjsBS7LKp8-54" value="void del_s(Stack&amp;amp; s)" style="shape=process;whiteSpace=wrap;html=1;backgroundOutline=1;" vertex="1" parent="1">
          <mxGeometry x="1155" y="650" width="140" height="30" as="geometry" />
        </mxCell>
        <mxCell id="Sqh9jJfDOOYjsBS7LKp8-55" style="edgeStyle=orthogonalEdgeStyle;rounded=0;orthogonalLoop=1;jettySize=auto;html=1;exitX=0.5;exitY=1;exitDx=0;exitDy=0;" edge="1" parent="1" source="Sqh9jJfDOOYjsBS7LKp8-57">
          <mxGeometry relative="1" as="geometry">
            <mxPoint x="1230.208095238095" y="820" as="targetPoint" />
          </mxGeometry>
        </mxCell>
        <mxCell id="Sqh9jJfDOOYjsBS7LKp8-56" style="edgeStyle=orthogonalEdgeStyle;rounded=0;orthogonalLoop=1;jettySize=auto;html=1;exitX=1;exitY=0.5;exitDx=0;exitDy=0;" edge="1" parent="1" source="Sqh9jJfDOOYjsBS7LKp8-57">
          <mxGeometry relative="1" as="geometry">
            <mxPoint x="1429.97" y="810" as="targetPoint" />
          </mxGeometry>
        </mxCell>
        <mxCell id="Sqh9jJfDOOYjsBS7LKp8-57" value="while (temp != nullptr)" style="rhombus;whiteSpace=wrap;html=1;" vertex="1" parent="1">
          <mxGeometry x="1149.97" y="750" width="160" height="50" as="geometry" />
        </mxCell>
        <mxCell id="Sqh9jJfDOOYjsBS7LKp8-58" style="edgeStyle=orthogonalEdgeStyle;rounded=0;orthogonalLoop=1;jettySize=auto;html=1;exitX=0.5;exitY=1;exitDx=0;exitDy=0;" edge="1" parent="1">
          <mxGeometry relative="1" as="geometry">
            <mxPoint x="1230.208095238095" y="870" as="targetPoint" />
            <mxPoint x="1229.97" y="850" as="sourcePoint" />
          </mxGeometry>
        </mxCell>
        <mxCell id="Sqh9jJfDOOYjsBS7LKp8-59" style="edgeStyle=orthogonalEdgeStyle;rounded=0;orthogonalLoop=1;jettySize=auto;html=1;exitX=0.538;exitY=1.048;exitDx=0;exitDy=0;entryX=0;entryY=0.5;entryDx=0;entryDy=0;exitPerimeter=0;" edge="1" parent="1" source="Sqh9jJfDOOYjsBS7LKp8-61" target="Sqh9jJfDOOYjsBS7LKp8-57">
          <mxGeometry relative="1" as="geometry">
            <Array as="points">
              <mxPoint x="1224" y="960" />
              <mxPoint x="1130" y="960" />
              <mxPoint x="1130" y="775" />
            </Array>
            <mxPoint x="1224.97" y="910" as="sourcePoint" />
          </mxGeometry>
        </mxCell>
        <mxCell id="Sqh9jJfDOOYjsBS7LKp8-60" value="&lt;font style=&quot;font-size: 9px;&quot;&gt;s.head = s.head-&amp;gt;next;&lt;/font&gt;" style="rounded=0;whiteSpace=wrap;html=1;" vertex="1" parent="1">
          <mxGeometry x="1169.97" y="820" width="120" height="30" as="geometry" />
        </mxCell>
        <mxCell id="Sqh9jJfDOOYjsBS7LKp8-61" value="delete temp;" style="rounded=0;whiteSpace=wrap;html=1;" vertex="1" parent="1">
          <mxGeometry x="1159.97" y="870" width="120" height="30" as="geometry" />
        </mxCell>
        <mxCell id="Sqh9jJfDOOYjsBS7LKp8-62" value="temp = s.head;" style="rounded=0;whiteSpace=wrap;html=1;" vertex="1" parent="1">
          <mxGeometry x="1160" y="915" width="120" height="30" as="geometry" />
        </mxCell>
        <mxCell id="Sqh9jJfDOOYjsBS7LKp8-63" value="&lt;div&gt;s.head = nullptr;&lt;br&gt;&lt;/div&gt;" style="rounded=0;whiteSpace=wrap;html=1;" vertex="1" parent="1">
          <mxGeometry x="1359.97" y="809" width="120" height="32.5" as="geometry" />
        </mxCell>
        <mxCell id="Sqh9jJfDOOYjsBS7LKp8-64" style="edgeStyle=orthogonalEdgeStyle;rounded=0;orthogonalLoop=1;jettySize=auto;html=1;exitX=0.5;exitY=1;exitDx=0;exitDy=0;" edge="1" parent="1" source="Sqh9jJfDOOYjsBS7LKp8-65">
          <mxGeometry relative="1" as="geometry">
            <mxPoint x="1420.208095238095" y="915" as="targetPoint" />
          </mxGeometry>
        </mxCell>
        <mxCell id="Sqh9jJfDOOYjsBS7LKp8-65" value="s.size = 0;" style="rounded=0;whiteSpace=wrap;html=1;" vertex="1" parent="1">
          <mxGeometry x="1359.97" y="867.5" width="120" height="30" as="geometry" />
        </mxCell>
        <mxCell id="Sqh9jJfDOOYjsBS7LKp8-66" style="edgeStyle=orthogonalEdgeStyle;rounded=0;orthogonalLoop=1;jettySize=auto;html=1;exitX=0.5;exitY=1;exitDx=0;exitDy=0;entryX=0.466;entryY=-0.004;entryDx=0;entryDy=0;entryPerimeter=0;" edge="1" parent="1" source="Sqh9jJfDOOYjsBS7LKp8-63" target="Sqh9jJfDOOYjsBS7LKp8-65">
          <mxGeometry relative="1" as="geometry" />
        </mxCell>
        <mxCell id="Sqh9jJfDOOYjsBS7LKp8-67" value="return;" style="ellipse;whiteSpace=wrap;html=1;" vertex="1" parent="1">
          <mxGeometry x="1359.97" y="913" width="120" height="32" as="geometry" />
        </mxCell>
        <mxCell id="Sqh9jJfDOOYjsBS7LKp8-68" value="}" style="text;html=1;align=center;verticalAlign=middle;resizable=0;points=[];autosize=1;strokeColor=none;fillColor=none;" vertex="1" parent="1">
          <mxGeometry x="1464.97" y="933" width="30" height="30" as="geometry" />
        </mxCell>
        <mxCell id="Sqh9jJfDOOYjsBS7LKp8-69" value="{" style="text;html=1;align=center;verticalAlign=middle;resizable=0;points=[];autosize=1;strokeColor=none;fillColor=none;" vertex="1" parent="1">
          <mxGeometry x="1130" y="673" width="30" height="30" as="geometry" />
        </mxCell>
        <mxCell id="Sqh9jJfDOOYjsBS7LKp8-70" value="{" style="text;html=1;align=center;verticalAlign=middle;resizable=0;points=[];autosize=1;strokeColor=none;fillColor=none;" vertex="1" parent="1">
          <mxGeometry x="1184.97" y="793" width="30" height="30" as="geometry" />
        </mxCell>
        <mxCell id="Sqh9jJfDOOYjsBS7LKp8-71" value="}" style="text;html=1;align=center;verticalAlign=middle;resizable=0;points=[];autosize=1;strokeColor=none;fillColor=none;" vertex="1" parent="1">
          <mxGeometry x="1230" y="945" width="30" height="30" as="geometry" />
        </mxCell>
        <mxCell id="Sqh9jJfDOOYjsBS7LKp8-72" style="edgeStyle=orthogonalEdgeStyle;rounded=0;orthogonalLoop=1;jettySize=auto;html=1;exitX=0.5;exitY=1;exitDx=0;exitDy=0;entryX=0.5;entryY=0;entryDx=0;entryDy=0;" edge="1" parent="1" source="Sqh9jJfDOOYjsBS7LKp8-73" target="Sqh9jJfDOOYjsBS7LKp8-57">
          <mxGeometry relative="1" as="geometry" />
        </mxCell>
        <mxCell id="Sqh9jJfDOOYjsBS7LKp8-73" value="&lt;font style=&quot;font-size: 9px;&quot;&gt;Node* temp = s.head;&lt;/font&gt;" style="rounded=0;whiteSpace=wrap;html=1;" vertex="1" parent="1">
          <mxGeometry x="1165" y="700" width="120" height="30" as="geometry" />
        </mxCell>
        <mxCell id="Sqh9jJfDOOYjsBS7LKp8-74" value="void push(Stack&amp;amp; s, char value, bool&amp;amp; f)" style="shape=process;whiteSpace=wrap;html=1;backgroundOutline=1;" vertex="1" parent="1">
          <mxGeometry x="1940" y="280" width="200" height="30" as="geometry" />
        </mxCell>
        <mxCell id="Sqh9jJfDOOYjsBS7LKp8-75" value="" style="edgeStyle=orthogonalEdgeStyle;rounded=0;orthogonalLoop=1;jettySize=auto;html=1;" edge="1" parent="1">
          <mxGeometry relative="1" as="geometry">
            <mxPoint x="2043.702857142857" y="310.0000000000001" as="sourcePoint" />
            <mxPoint x="2043.942857142857" y="330.0000000000001" as="targetPoint" />
          </mxGeometry>
        </mxCell>
        <mxCell id="Sqh9jJfDOOYjsBS7LKp8-76" value="" style="edgeStyle=orthogonalEdgeStyle;rounded=0;orthogonalLoop=1;jettySize=auto;html=1;" edge="1" parent="1">
          <mxGeometry relative="1" as="geometry">
            <mxPoint x="2043.942857142857" y="310.0000000000001" as="sourcePoint" />
            <mxPoint x="2043.942857142857" y="330.0000000000001" as="targetPoint" />
          </mxGeometry>
        </mxCell>
        <mxCell id="Sqh9jJfDOOYjsBS7LKp8-77" style="edgeStyle=orthogonalEdgeStyle;rounded=0;orthogonalLoop=1;jettySize=auto;html=1;exitX=0;exitY=0.5;exitDx=0;exitDy=0;" edge="1" source="Sqh9jJfDOOYjsBS7LKp8-79" parent="1">
          <mxGeometry relative="1" as="geometry">
            <mxPoint x="1900" y="420.0000000000001" as="targetPoint" />
          </mxGeometry>
        </mxCell>
        <mxCell id="Sqh9jJfDOOYjsBS7LKp8-94" style="edgeStyle=orthogonalEdgeStyle;rounded=0;orthogonalLoop=1;jettySize=auto;html=1;exitX=1;exitY=0.5;exitDx=0;exitDy=0;entryX=0.5;entryY=0;entryDx=0;entryDy=0;" edge="1" parent="1" source="Sqh9jJfDOOYjsBS7LKp8-79" target="Sqh9jJfDOOYjsBS7LKp8-99">
          <mxGeometry relative="1" as="geometry">
            <mxPoint x="2280" y="420" as="targetPoint" />
          </mxGeometry>
        </mxCell>
        <mxCell id="Sqh9jJfDOOYjsBS7LKp8-79" value="if (value == &#39;(&#39; || value == &#39;{&#39;&amp;nbsp;&lt;div&gt;|| value == &#39;[&#39;)&lt;/div&gt;" style="rhombus;whiteSpace=wrap;html=1;" vertex="1" parent="1">
          <mxGeometry x="1940" y="330" width="200" height="80" as="geometry" />
        </mxCell>
        <mxCell id="Sqh9jJfDOOYjsBS7LKp8-84" style="edgeStyle=orthogonalEdgeStyle;rounded=0;orthogonalLoop=1;jettySize=auto;html=1;exitX=0.5;exitY=1;exitDx=0;exitDy=0;" edge="1" parent="1" source="Sqh9jJfDOOYjsBS7LKp8-81">
          <mxGeometry relative="1" as="geometry">
            <mxPoint x="1900" y="470" as="targetPoint" />
          </mxGeometry>
        </mxCell>
        <mxCell id="Sqh9jJfDOOYjsBS7LKp8-81" value="Node* newNode = new Node;" style="rounded=0;whiteSpace=wrap;html=1;" vertex="1" parent="1">
          <mxGeometry x="1840" y="420.0000000000001" width="120" height="30" as="geometry" />
        </mxCell>
        <mxCell id="Sqh9jJfDOOYjsBS7LKp8-85" style="edgeStyle=orthogonalEdgeStyle;rounded=0;orthogonalLoop=1;jettySize=auto;html=1;exitX=0.5;exitY=1;exitDx=0;exitDy=0;" edge="1" parent="1" source="Sqh9jJfDOOYjsBS7LKp8-86">
          <mxGeometry relative="1" as="geometry">
            <mxPoint x="1900" y="520" as="targetPoint" />
          </mxGeometry>
        </mxCell>
        <mxCell id="Sqh9jJfDOOYjsBS7LKp8-86" value="newNode-&amp;gt;data = value;" style="rounded=0;whiteSpace=wrap;html=1;" vertex="1" parent="1">
          <mxGeometry x="1840" y="470.0000000000001" width="120" height="30" as="geometry" />
        </mxCell>
        <mxCell id="Sqh9jJfDOOYjsBS7LKp8-87" style="edgeStyle=orthogonalEdgeStyle;rounded=0;orthogonalLoop=1;jettySize=auto;html=1;exitX=0.5;exitY=1;exitDx=0;exitDy=0;" edge="1" parent="1" source="Sqh9jJfDOOYjsBS7LKp8-88">
          <mxGeometry relative="1" as="geometry">
            <mxPoint x="1900" y="570" as="targetPoint" />
          </mxGeometry>
        </mxCell>
        <mxCell id="Sqh9jJfDOOYjsBS7LKp8-88" value="&amp;nbsp;newNode-&amp;gt;next = s.head;" style="rounded=0;whiteSpace=wrap;html=1;" vertex="1" parent="1">
          <mxGeometry x="1840" y="520.0000000000001" width="120" height="30" as="geometry" />
        </mxCell>
        <mxCell id="Sqh9jJfDOOYjsBS7LKp8-89" style="edgeStyle=orthogonalEdgeStyle;rounded=0;orthogonalLoop=1;jettySize=auto;html=1;exitX=0.5;exitY=1;exitDx=0;exitDy=0;" edge="1" parent="1" source="Sqh9jJfDOOYjsBS7LKp8-90">
          <mxGeometry relative="1" as="geometry">
            <mxPoint x="1900" y="620" as="targetPoint" />
          </mxGeometry>
        </mxCell>
        <mxCell id="Sqh9jJfDOOYjsBS7LKp8-90" value="s.head = newNode;" style="rounded=0;whiteSpace=wrap;html=1;" vertex="1" parent="1">
          <mxGeometry x="1840" y="570.0000000000001" width="120" height="30" as="geometry" />
        </mxCell>
        <mxCell id="Sqh9jJfDOOYjsBS7LKp8-92" style="edgeStyle=orthogonalEdgeStyle;rounded=0;orthogonalLoop=1;jettySize=auto;html=1;exitX=0.5;exitY=1;exitDx=0;exitDy=0;" edge="1" parent="1" source="Sqh9jJfDOOYjsBS7LKp8-93">
          <mxGeometry relative="1" as="geometry">
            <mxPoint x="2300" y="880" as="targetPoint" />
            <Array as="points">
              <mxPoint x="1900" y="880" />
            </Array>
          </mxGeometry>
        </mxCell>
        <mxCell id="Sqh9jJfDOOYjsBS7LKp8-93" value="&amp;nbsp;s.size++;" style="rounded=0;whiteSpace=wrap;html=1;" vertex="1" parent="1">
          <mxGeometry x="1840" y="623.0000000000001" width="120" height="30" as="geometry" />
        </mxCell>
        <mxCell id="Sqh9jJfDOOYjsBS7LKp8-97" style="edgeStyle=orthogonalEdgeStyle;rounded=0;orthogonalLoop=1;jettySize=auto;html=1;exitX=0;exitY=0.5;exitDx=0;exitDy=0;" edge="1" source="Sqh9jJfDOOYjsBS7LKp8-99" parent="1">
          <mxGeometry relative="1" as="geometry">
            <mxPoint x="2200" y="510.0000000000001" as="targetPoint" />
          </mxGeometry>
        </mxCell>
        <mxCell id="Sqh9jJfDOOYjsBS7LKp8-127" style="edgeStyle=orthogonalEdgeStyle;rounded=0;orthogonalLoop=1;jettySize=auto;html=1;exitX=1;exitY=0.5;exitDx=0;exitDy=0;" edge="1" parent="1" source="Sqh9jJfDOOYjsBS7LKp8-99">
          <mxGeometry relative="1" as="geometry">
            <mxPoint x="2670" y="520" as="targetPoint" />
          </mxGeometry>
        </mxCell>
        <mxCell id="Sqh9jJfDOOYjsBS7LKp8-99" value="&lt;font style=&quot;font-size: 10px;&quot;&gt;if (value == &#39;)&#39; || value&lt;/font&gt;&lt;div&gt;&lt;font style=&quot;font-size: 10px;&quot;&gt;&amp;nbsp;== &#39;}&#39; || value == &#39;]&#39;)&lt;/font&gt;&lt;/div&gt;" style="rhombus;whiteSpace=wrap;html=1;" vertex="1" parent="1">
          <mxGeometry x="2280" y="420.0000000000001" width="130" height="80" as="geometry" />
        </mxCell>
        <mxCell id="Sqh9jJfDOOYjsBS7LKp8-106" style="edgeStyle=orthogonalEdgeStyle;rounded=0;orthogonalLoop=1;jettySize=auto;html=1;exitX=0;exitY=0.5;exitDx=0;exitDy=0;" edge="1" source="Sqh9jJfDOOYjsBS7LKp8-108" parent="1">
          <mxGeometry relative="1" as="geometry">
            <mxPoint x="2060" y="590.0000000000001" as="targetPoint" />
          </mxGeometry>
        </mxCell>
        <mxCell id="Sqh9jJfDOOYjsBS7LKp8-107" style="edgeStyle=orthogonalEdgeStyle;rounded=0;orthogonalLoop=1;jettySize=auto;html=1;exitX=1;exitY=0.5;exitDx=0;exitDy=0;" edge="1" source="Sqh9jJfDOOYjsBS7LKp8-108" parent="1">
          <mxGeometry relative="1" as="geometry">
            <mxPoint x="2360" y="590.0000000000001" as="targetPoint" />
          </mxGeometry>
        </mxCell>
        <mxCell id="Sqh9jJfDOOYjsBS7LKp8-108" value="if (s.head == nullptr ||&lt;div&gt;&amp;nbsp;!flag(s.head-&amp;gt;data, value))&lt;/div&gt;" style="rhombus;whiteSpace=wrap;html=1;" vertex="1" parent="1">
          <mxGeometry x="2100" y="505" width="210" height="80" as="geometry" />
        </mxCell>
        <mxCell id="Sqh9jJfDOOYjsBS7LKp8-118" style="edgeStyle=orthogonalEdgeStyle;rounded=0;orthogonalLoop=1;jettySize=auto;html=1;exitX=0.5;exitY=1;exitDx=0;exitDy=0;" edge="1" parent="1" source="Sqh9jJfDOOYjsBS7LKp8-112">
          <mxGeometry relative="1" as="geometry">
            <mxPoint x="2360.190476190476" y="640" as="targetPoint" />
          </mxGeometry>
        </mxCell>
        <mxCell id="Sqh9jJfDOOYjsBS7LKp8-112" value="&amp;nbsp;Node* temp = s.head;" style="rounded=0;whiteSpace=wrap;html=1;" vertex="1" parent="1">
          <mxGeometry x="2300" y="590.0000000000001" width="120" height="30" as="geometry" />
        </mxCell>
        <mxCell id="Sqh9jJfDOOYjsBS7LKp8-113" value="cout &amp;lt;&amp;lt; &quot;Некорректный ввод скобок!&quot; &amp;lt;&amp;lt; endl;" style="shape=parallelogram;perimeter=parallelogramPerimeter;whiteSpace=wrap;html=1;fixedSize=1;" vertex="1" parent="1">
          <mxGeometry x="1990" y="590" width="150" height="50" as="geometry" />
        </mxCell>
        <mxCell id="Sqh9jJfDOOYjsBS7LKp8-114" style="edgeStyle=orthogonalEdgeStyle;rounded=0;orthogonalLoop=1;jettySize=auto;html=1;exitX=0.5;exitY=1;exitDx=0;exitDy=0;" edge="1" parent="1">
          <mxGeometry relative="1" as="geometry">
            <mxPoint x="2060" y="660" as="targetPoint" />
            <mxPoint x="2060" y="640" as="sourcePoint" />
          </mxGeometry>
        </mxCell>
        <mxCell id="Sqh9jJfDOOYjsBS7LKp8-115" style="edgeStyle=orthogonalEdgeStyle;rounded=0;orthogonalLoop=1;jettySize=auto;html=1;exitX=0.5;exitY=1;exitDx=0;exitDy=0;entryX=0.5;entryY=0;entryDx=0;entryDy=0;" edge="1" parent="1" source="Sqh9jJfDOOYjsBS7LKp8-116" target="Sqh9jJfDOOYjsBS7LKp8-117">
          <mxGeometry relative="1" as="geometry">
            <mxPoint x="2060" y="710" as="targetPoint" />
          </mxGeometry>
        </mxCell>
        <mxCell id="Sqh9jJfDOOYjsBS7LKp8-116" value="f = false;" style="rounded=0;whiteSpace=wrap;html=1;" vertex="1" parent="1">
          <mxGeometry x="2000" y="660.0000000000001" width="120" height="30" as="geometry" />
        </mxCell>
        <mxCell id="Sqh9jJfDOOYjsBS7LKp8-126" style="edgeStyle=orthogonalEdgeStyle;rounded=0;orthogonalLoop=1;jettySize=auto;html=1;exitX=0.5;exitY=1;exitDx=0;exitDy=0;" edge="1" parent="1" source="Sqh9jJfDOOYjsBS7LKp8-117">
          <mxGeometry relative="1" as="geometry">
            <mxPoint x="2220" y="800" as="targetPoint" />
            <Array as="points">
              <mxPoint x="2060" y="800" />
            </Array>
          </mxGeometry>
        </mxCell>
        <mxCell id="Sqh9jJfDOOYjsBS7LKp8-117" value="return;" style="ellipse;whiteSpace=wrap;html=1;" vertex="1" parent="1">
          <mxGeometry x="2000" y="713" width="120" height="37" as="geometry" />
        </mxCell>
        <mxCell id="Sqh9jJfDOOYjsBS7LKp8-119" style="edgeStyle=orthogonalEdgeStyle;rounded=0;orthogonalLoop=1;jettySize=auto;html=1;exitX=0.5;exitY=1;exitDx=0;exitDy=0;" edge="1" parent="1" source="Sqh9jJfDOOYjsBS7LKp8-120">
          <mxGeometry relative="1" as="geometry">
            <mxPoint x="2360.190476190476" y="690" as="targetPoint" />
          </mxGeometry>
        </mxCell>
        <mxCell id="Sqh9jJfDOOYjsBS7LKp8-120" value="s.head = s.head-&amp;gt;next;" style="rounded=0;whiteSpace=wrap;html=1;" vertex="1" parent="1">
          <mxGeometry x="2300" y="640.0000000000001" width="120" height="30" as="geometry" />
        </mxCell>
        <mxCell id="Sqh9jJfDOOYjsBS7LKp8-121" style="edgeStyle=orthogonalEdgeStyle;rounded=0;orthogonalLoop=1;jettySize=auto;html=1;exitX=0.5;exitY=1;exitDx=0;exitDy=0;" edge="1" parent="1" source="Sqh9jJfDOOYjsBS7LKp8-122">
          <mxGeometry relative="1" as="geometry">
            <mxPoint x="2360.190476190476" y="740" as="targetPoint" />
          </mxGeometry>
        </mxCell>
        <mxCell id="Sqh9jJfDOOYjsBS7LKp8-122" value="&amp;nbsp;delete temp;" style="rounded=0;whiteSpace=wrap;html=1;" vertex="1" parent="1">
          <mxGeometry x="2300" y="690.0000000000001" width="120" height="30" as="geometry" />
        </mxCell>
        <mxCell id="Sqh9jJfDOOYjsBS7LKp8-123" style="edgeStyle=orthogonalEdgeStyle;rounded=0;orthogonalLoop=1;jettySize=auto;html=1;exitX=0.5;exitY=1;exitDx=0;exitDy=0;" edge="1" parent="1">
          <mxGeometry relative="1" as="geometry">
            <mxPoint x="2360.190476190476" y="740" as="targetPoint" />
            <mxPoint x="2360" y="720" as="sourcePoint" />
          </mxGeometry>
        </mxCell>
        <mxCell id="Sqh9jJfDOOYjsBS7LKp8-124" style="edgeStyle=orthogonalEdgeStyle;rounded=0;orthogonalLoop=1;jettySize=auto;html=1;exitX=0.5;exitY=1;exitDx=0;exitDy=0;" edge="1" parent="1" source="Sqh9jJfDOOYjsBS7LKp8-125">
          <mxGeometry relative="1" as="geometry">
            <mxPoint x="2220" y="800" as="targetPoint" />
            <Array as="points">
              <mxPoint x="2360" y="800" />
            </Array>
          </mxGeometry>
        </mxCell>
        <mxCell id="Sqh9jJfDOOYjsBS7LKp8-125" value="s.size--;" style="rounded=0;whiteSpace=wrap;html=1;" vertex="1" parent="1">
          <mxGeometry x="2300" y="740.0000000000001" width="120" height="30" as="geometry" />
        </mxCell>
        <mxCell id="Sqh9jJfDOOYjsBS7LKp8-129" style="edgeStyle=orthogonalEdgeStyle;rounded=0;orthogonalLoop=1;jettySize=auto;html=1;exitX=0.5;exitY=1;exitDx=0;exitDy=0;" edge="1" parent="1" source="Sqh9jJfDOOYjsBS7LKp8-128">
          <mxGeometry relative="1" as="geometry">
            <mxPoint x="2655.241379310345" y="590" as="targetPoint" />
          </mxGeometry>
        </mxCell>
        <mxCell id="Sqh9jJfDOOYjsBS7LKp8-128" value="&lt;font style=&quot;font-size: 9px;&quot;&gt;cout &amp;lt;&amp;lt; &quot;Некорректный&lt;/font&gt;&lt;div&gt;&lt;font style=&quot;font-size: 9px;&quot;&gt;&amp;nbsp;символ: &quot; &amp;lt;&amp;lt; value &amp;lt;&amp;lt; endl;&lt;/font&gt;&lt;/div&gt;" style="shape=parallelogram;perimeter=parallelogramPerimeter;whiteSpace=wrap;html=1;fixedSize=1;" vertex="1" parent="1">
          <mxGeometry x="2580" y="520" width="150" height="50" as="geometry" />
        </mxCell>
        <mxCell id="Sqh9jJfDOOYjsBS7LKp8-133" style="edgeStyle=orthogonalEdgeStyle;rounded=0;orthogonalLoop=1;jettySize=auto;html=1;exitX=0.5;exitY=1;exitDx=0;exitDy=0;" edge="1" parent="1" source="Sqh9jJfDOOYjsBS7LKp8-130">
          <mxGeometry relative="1" as="geometry">
            <mxPoint x="2470" y="840" as="targetPoint" />
            <Array as="points">
              <mxPoint x="2655" y="840" />
            </Array>
          </mxGeometry>
        </mxCell>
        <mxCell id="Sqh9jJfDOOYjsBS7LKp8-130" value="return;" style="ellipse;whiteSpace=wrap;html=1;" vertex="1" parent="1">
          <mxGeometry x="2595" y="590" width="120" height="37" as="geometry" />
        </mxCell>
        <mxCell id="Sqh9jJfDOOYjsBS7LKp8-132" value="" style="endArrow=classic;html=1;rounded=0;" edge="1" parent="1">
          <mxGeometry width="50" height="50" relative="1" as="geometry">
            <mxPoint x="2220" y="800" as="sourcePoint" />
            <mxPoint x="2470" y="840" as="targetPoint" />
            <Array as="points">
              <mxPoint x="2220" y="840" />
            </Array>
          </mxGeometry>
        </mxCell>
        <mxCell id="Sqh9jJfDOOYjsBS7LKp8-135" value="" style="endArrow=classic;html=1;rounded=0;" edge="1" parent="1">
          <mxGeometry width="50" height="50" relative="1" as="geometry">
            <mxPoint x="2470" y="840" as="sourcePoint" />
            <mxPoint x="2300" y="880" as="targetPoint" />
            <Array as="points">
              <mxPoint x="2470" y="880" />
            </Array>
          </mxGeometry>
        </mxCell>
        <mxCell id="Sqh9jJfDOOYjsBS7LKp8-136" value="" style="endArrow=classic;html=1;rounded=0;" edge="1" parent="1">
          <mxGeometry width="50" height="50" relative="1" as="geometry">
            <mxPoint x="2300" y="880" as="sourcePoint" />
            <mxPoint x="2300" y="900" as="targetPoint" />
          </mxGeometry>
        </mxCell>
        <mxCell id="Sqh9jJfDOOYjsBS7LKp8-137" value="return;" style="ellipse;whiteSpace=wrap;html=1;" vertex="1" parent="1">
          <mxGeometry x="2240" y="900" width="120" height="37" as="geometry" />
        </mxCell>
        <mxCell id="Sqh9jJfDOOYjsBS7LKp8-138" value="}" style="text;html=1;align=center;verticalAlign=middle;resizable=0;points=[];autosize=1;strokeColor=none;fillColor=none;" vertex="1" parent="1">
          <mxGeometry x="2375" y="928" width="30" height="30" as="geometry" />
        </mxCell>
        <mxCell id="Sqh9jJfDOOYjsBS7LKp8-139" value="{" style="text;html=1;align=center;verticalAlign=middle;resizable=0;points=[];autosize=1;strokeColor=none;fillColor=none;" vertex="1" parent="1">
          <mxGeometry x="1915" y="318" width="30" height="30" as="geometry" />
        </mxCell>
        <mxCell id="Sqh9jJfDOOYjsBS7LKp8-140" value="{" style="text;html=1;align=center;verticalAlign=middle;resizable=0;points=[];autosize=1;strokeColor=none;fillColor=none;" vertex="1" parent="1">
          <mxGeometry x="1895" y="128" width="30" height="30" as="geometry" />
        </mxCell>
        <mxCell id="Sqh9jJfDOOYjsBS7LKp8-141" value="}" style="text;html=1;align=center;verticalAlign=middle;resizable=0;points=[];autosize=1;strokeColor=none;fillColor=none;" vertex="1" parent="1">
          <mxGeometry x="2205" y="198" width="30" height="30" as="geometry" />
        </mxCell>
        <mxCell id="Sqh9jJfDOOYjsBS7LKp8-142" value="" style="edgeStyle=orthogonalEdgeStyle;rounded=0;orthogonalLoop=1;jettySize=auto;html=1;" edge="1" source="Sqh9jJfDOOYjsBS7LKp8-143" parent="1">
          <mxGeometry relative="1" as="geometry">
            <mxPoint x="320" y="150" as="targetPoint" />
          </mxGeometry>
        </mxCell>
        <mxCell id="Sqh9jJfDOOYjsBS7LKp8-143" value="Начало" style="ellipse;whiteSpace=wrap;html=1;" vertex="1" parent="1">
          <mxGeometry x="260" y="80" width="120" height="40" as="geometry" />
        </mxCell>
        <mxCell id="Sqh9jJfDOOYjsBS7LKp8-144" value="" style="edgeStyle=orthogonalEdgeStyle;rounded=0;orthogonalLoop=1;jettySize=auto;html=1;" edge="1" source="Sqh9jJfDOOYjsBS7LKp8-145" parent="1">
          <mxGeometry relative="1" as="geometry">
            <mxPoint x="320" y="200" as="targetPoint" />
          </mxGeometry>
        </mxCell>
        <mxCell id="Sqh9jJfDOOYjsBS7LKp8-145" value="int main()" style="shape=process;whiteSpace=wrap;html=1;backgroundOutline=1;" vertex="1" parent="1">
          <mxGeometry x="260" y="150" width="120" height="30" as="geometry" />
        </mxCell>
        <mxCell id="Sqh9jJfDOOYjsBS7LKp8-146" value="srand(time(NULL));" style="rounded=0;whiteSpace=wrap;html=1;" vertex="1" parent="1">
          <mxGeometry x="260" y="200" width="120" height="30" as="geometry" />
        </mxCell>
        <mxCell id="Sqh9jJfDOOYjsBS7LKp8-147" value="" style="edgeStyle=orthogonalEdgeStyle;rounded=0;orthogonalLoop=1;jettySize=auto;html=1;" edge="1" parent="1">
          <mxGeometry relative="1" as="geometry">
            <mxPoint x="320" y="230" as="sourcePoint" />
            <mxPoint x="320" y="250" as="targetPoint" />
          </mxGeometry>
        </mxCell>
        <mxCell id="Sqh9jJfDOOYjsBS7LKp8-148" value="setlocale(LC_ALL, &quot;Russian&quot;);" style="rounded=0;whiteSpace=wrap;html=1;" vertex="1" parent="1">
          <mxGeometry x="260" y="250" width="120" height="30" as="geometry" />
        </mxCell>
        <mxCell id="Sqh9jJfDOOYjsBS7LKp8-149" value="" style="edgeStyle=orthogonalEdgeStyle;rounded=0;orthogonalLoop=1;jettySize=auto;html=1;" edge="1" parent="1">
          <mxGeometry relative="1" as="geometry">
            <mxPoint x="320" y="280" as="sourcePoint" />
            <mxPoint x="320" y="300" as="targetPoint" />
          </mxGeometry>
        </mxCell>
        <mxCell id="Sqh9jJfDOOYjsBS7LKp8-150" value="&lt;div&gt;#include &amp;lt;iostream&amp;gt;&lt;/div&gt;&lt;div&gt;using namespace std;&lt;/div&gt;&lt;div&gt;&lt;span style=&quot;background-color: transparent; color: light-dark(rgb(0, 0, 0), rgb(255, 255, 255));&quot;&gt;setlocale(LC_ALL, &quot;Russian&quot;);&lt;/span&gt;&lt;br&gt;&lt;/div&gt;&lt;div&gt;&lt;div&gt;Stack s;&lt;/div&gt;&lt;div&gt;bool f = true;&lt;/div&gt;&lt;div&gt;char input[100];&amp;nbsp;&lt;/div&gt;&lt;/div&gt;&lt;div&gt;int len = strlen(input);&lt;br&gt;&lt;/div&gt;" style="strokeWidth=2;html=1;shape=mxgraph.flowchart.annotation_2;align=left;labelPosition=right;pointerEvents=1;" vertex="1" parent="1">
          <mxGeometry x="400" y="80" width="50" height="100" as="geometry" />
        </mxCell>
        <mxCell id="Sqh9jJfDOOYjsBS7LKp8-151" value="" style="endArrow=none;dashed=1;html=1;rounded=0;entryX=-0.04;entryY=0.503;entryDx=0;entryDy=0;entryPerimeter=0;" edge="1" target="Sqh9jJfDOOYjsBS7LKp8-150" parent="1">
          <mxGeometry width="50" height="50" relative="1" as="geometry">
            <mxPoint x="320" y="130" as="sourcePoint" />
            <mxPoint x="390" y="130" as="targetPoint" />
          </mxGeometry>
        </mxCell>
        <mxCell id="Sqh9jJfDOOYjsBS7LKp8-153" style="edgeStyle=orthogonalEdgeStyle;rounded=0;orthogonalLoop=1;jettySize=auto;html=1;exitX=0.5;exitY=1;exitDx=0;exitDy=0;" edge="1" parent="1" source="Sqh9jJfDOOYjsBS7LKp8-152">
          <mxGeometry relative="1" as="geometry">
            <mxPoint x="320.1612903225805" y="350" as="targetPoint" />
          </mxGeometry>
        </mxCell>
        <mxCell id="Sqh9jJfDOOYjsBS7LKp8-152" value="cout &amp;lt;&amp;lt; &quot;Введите строку скобок: &quot;;" style="shape=parallelogram;perimeter=parallelogramPerimeter;whiteSpace=wrap;html=1;fixedSize=1;" vertex="1" parent="1">
          <mxGeometry x="220" y="300" width="200" height="30" as="geometry" />
        </mxCell>
        <mxCell id="Sqh9jJfDOOYjsBS7LKp8-155" style="edgeStyle=orthogonalEdgeStyle;rounded=0;orthogonalLoop=1;jettySize=auto;html=1;exitX=0.5;exitY=1;exitDx=0;exitDy=0;" edge="1" parent="1" source="Sqh9jJfDOOYjsBS7LKp8-156">
          <mxGeometry relative="1" as="geometry">
            <mxPoint x="320.1612903225805" y="398" as="targetPoint" />
          </mxGeometry>
        </mxCell>
        <mxCell id="Sqh9jJfDOOYjsBS7LKp8-156" value="&amp;nbsp;cin.getline(input, 100);&amp;nbsp;" style="shape=parallelogram;perimeter=parallelogramPerimeter;whiteSpace=wrap;html=1;fixedSize=1;" vertex="1" parent="1">
          <mxGeometry x="220" y="348" width="200" height="30" as="geometry" />
        </mxCell>
        <mxCell id="Sqh9jJfDOOYjsBS7LKp8-174" style="edgeStyle=orthogonalEdgeStyle;rounded=0;orthogonalLoop=1;jettySize=auto;html=1;exitX=1;exitY=0.5;exitDx=0;exitDy=0;" edge="1" parent="1" source="Sqh9jJfDOOYjsBS7LKp8-159">
          <mxGeometry relative="1" as="geometry">
            <mxPoint x="750" y="480" as="targetPoint" />
          </mxGeometry>
        </mxCell>
        <mxCell id="Sqh9jJfDOOYjsBS7LKp8-159" value="" style="verticalLabelPosition=bottom;verticalAlign=top;html=1;shape=hexagon;perimeter=hexagonPerimeter2;arcSize=6;size=0.11951219512195121;" vertex="1" parent="1">
          <mxGeometry x="219.47142857142853" y="400" width="205" height="50" as="geometry" />
        </mxCell>
        <mxCell id="Sqh9jJfDOOYjsBS7LKp8-160" value="" style="edgeStyle=orthogonalEdgeStyle;rounded=0;orthogonalLoop=1;jettySize=auto;html=1;" edge="1" parent="1">
          <mxGeometry relative="1" as="geometry">
            <mxPoint x="323.7314285714285" y="450" as="sourcePoint" />
            <mxPoint x="323.97142857142853" y="470" as="targetPoint" />
          </mxGeometry>
        </mxCell>
        <mxCell id="Sqh9jJfDOOYjsBS7LKp8-161" value="for (int i = 0; i &amp;lt; len; i++)" style="text;html=1;align=center;verticalAlign=middle;whiteSpace=wrap;rounded=0;" vertex="1" parent="1">
          <mxGeometry x="263.97142857142853" y="410" width="120" height="30" as="geometry" />
        </mxCell>
        <mxCell id="Sqh9jJfDOOYjsBS7LKp8-163" value="char val = input[i];&amp;nbsp;" style="rounded=0;whiteSpace=wrap;html=1;" vertex="1" parent="1">
          <mxGeometry x="263.97142857142853" y="470" width="120" height="30" as="geometry" />
        </mxCell>
        <mxCell id="Sqh9jJfDOOYjsBS7LKp8-164" value="" style="edgeStyle=orthogonalEdgeStyle;rounded=0;orthogonalLoop=1;jettySize=auto;html=1;" edge="1" parent="1">
          <mxGeometry relative="1" as="geometry">
            <mxPoint x="317.70285714285706" y="500.0000000000001" as="sourcePoint" />
            <mxPoint x="317.94285714285706" y="520.0000000000001" as="targetPoint" />
          </mxGeometry>
        </mxCell>
        <mxCell id="Sqh9jJfDOOYjsBS7LKp8-165" value="" style="edgeStyle=orthogonalEdgeStyle;rounded=0;orthogonalLoop=1;jettySize=auto;html=1;" edge="1" parent="1">
          <mxGeometry relative="1" as="geometry">
            <mxPoint x="317.94285714285706" y="500.0000000000001" as="sourcePoint" />
            <mxPoint x="317.94285714285706" y="520.0000000000001" as="targetPoint" />
          </mxGeometry>
        </mxCell>
        <mxCell id="Sqh9jJfDOOYjsBS7LKp8-166" style="edgeStyle=orthogonalEdgeStyle;rounded=0;orthogonalLoop=1;jettySize=auto;html=1;exitX=0;exitY=0.5;exitDx=0;exitDy=0;" edge="1" source="Sqh9jJfDOOYjsBS7LKp8-168" parent="1">
          <mxGeometry relative="1" as="geometry">
            <mxPoint x="174" y="610.0000000000001" as="targetPoint" />
          </mxGeometry>
        </mxCell>
        <mxCell id="Sqh9jJfDOOYjsBS7LKp8-167" style="edgeStyle=orthogonalEdgeStyle;rounded=0;orthogonalLoop=1;jettySize=auto;html=1;exitX=1;exitY=0.5;exitDx=0;exitDy=0;" edge="1" source="Sqh9jJfDOOYjsBS7LKp8-168" parent="1">
          <mxGeometry relative="1" as="geometry">
            <mxPoint x="473.9999999999998" y="610.0000000000001" as="targetPoint" />
          </mxGeometry>
        </mxCell>
        <mxCell id="Sqh9jJfDOOYjsBS7LKp8-168" value="if (i == 0 &amp;amp;&amp;amp;&amp;nbsp;&lt;div&gt;(val == &#39;(&#39; || val == &#39;{&#39;&amp;nbsp;&lt;/div&gt;&lt;div&gt;|| val == &#39;[&#39;))&lt;/div&gt;" style="rhombus;whiteSpace=wrap;html=1;" vertex="1" parent="1">
          <mxGeometry x="220" y="520" width="200" height="80" as="geometry" />
        </mxCell>
        <mxCell id="Sqh9jJfDOOYjsBS7LKp8-169" style="edgeStyle=orthogonalEdgeStyle;rounded=0;orthogonalLoop=1;jettySize=auto;html=1;exitX=0.5;exitY=1;exitDx=0;exitDy=0;" edge="1" source="Sqh9jJfDOOYjsBS7LKp8-170" parent="1">
          <mxGeometry relative="1" as="geometry">
            <mxPoint x="323.9999999999998" y="660.0000000000001" as="targetPoint" />
            <Array as="points">
              <mxPoint x="174" y="660.0000000000001" />
            </Array>
          </mxGeometry>
        </mxCell>
        <mxCell id="Sqh9jJfDOOYjsBS7LKp8-170" value="init(s, val);&amp;nbsp;" style="rounded=0;whiteSpace=wrap;html=1;" vertex="1" parent="1">
          <mxGeometry x="114" y="610.0000000000001" width="120" height="30" as="geometry" />
        </mxCell>
        <mxCell id="Sqh9jJfDOOYjsBS7LKp8-171" style="edgeStyle=orthogonalEdgeStyle;rounded=0;orthogonalLoop=1;jettySize=auto;html=1;exitX=0.5;exitY=1;exitDx=0;exitDy=0;" edge="1" source="Sqh9jJfDOOYjsBS7LKp8-172" parent="1">
          <mxGeometry relative="1" as="geometry">
            <mxPoint x="323.9999999999998" y="660.0000000000001" as="targetPoint" />
            <Array as="points">
              <mxPoint x="474" y="660.0000000000001" />
            </Array>
          </mxGeometry>
        </mxCell>
        <mxCell id="Sqh9jJfDOOYjsBS7LKp8-172" value="push(s, val, f);&amp;nbsp;" style="rounded=0;whiteSpace=wrap;html=1;" vertex="1" parent="1">
          <mxGeometry x="414" y="610.0000000000001" width="120" height="30" as="geometry" />
        </mxCell>
        <mxCell id="Sqh9jJfDOOYjsBS7LKp8-173" value="" style="endArrow=classic;html=1;rounded=0;entryX=0;entryY=0.5;entryDx=0;entryDy=0;" edge="1" parent="1" target="Sqh9jJfDOOYjsBS7LKp8-159">
          <mxGeometry width="50" height="50" relative="1" as="geometry">
            <mxPoint x="330" y="660" as="sourcePoint" />
            <mxPoint x="380" y="610" as="targetPoint" />
            <Array as="points">
              <mxPoint x="330" y="680" />
              <mxPoint x="330" y="690" />
              <mxPoint x="90" y="690" />
              <mxPoint x="90" y="425" />
            </Array>
          </mxGeometry>
        </mxCell>
        <mxCell id="Sqh9jJfDOOYjsBS7LKp8-177" style="edgeStyle=orthogonalEdgeStyle;rounded=0;orthogonalLoop=1;jettySize=auto;html=1;exitX=0;exitY=0.5;exitDx=0;exitDy=0;" edge="1" source="Sqh9jJfDOOYjsBS7LKp8-179" parent="1">
          <mxGeometry relative="1" as="geometry">
            <mxPoint x="610" y="573.0000000000001" as="targetPoint" />
          </mxGeometry>
        </mxCell>
        <mxCell id="Sqh9jJfDOOYjsBS7LKp8-178" style="edgeStyle=orthogonalEdgeStyle;rounded=0;orthogonalLoop=1;jettySize=auto;html=1;exitX=1;exitY=0.5;exitDx=0;exitDy=0;" edge="1" source="Sqh9jJfDOOYjsBS7LKp8-179" parent="1">
          <mxGeometry relative="1" as="geometry">
            <mxPoint x="909.9999999999998" y="573.0000000000001" as="targetPoint" />
          </mxGeometry>
        </mxCell>
        <mxCell id="Sqh9jJfDOOYjsBS7LKp8-179" value="if (s.size == 0 &amp;amp;&amp;amp; f == true)" style="rhombus;whiteSpace=wrap;html=1;" vertex="1" parent="1">
          <mxGeometry x="660" y="483" width="180" height="80" as="geometry" />
        </mxCell>
        <mxCell id="Sqh9jJfDOOYjsBS7LKp8-180" style="edgeStyle=orthogonalEdgeStyle;rounded=0;orthogonalLoop=1;jettySize=auto;html=1;exitX=0.5;exitY=1;exitDx=0;exitDy=0;" edge="1" parent="1">
          <mxGeometry relative="1" as="geometry">
            <mxPoint x="759.9999999999998" y="623.0000000000001" as="targetPoint" />
            <Array as="points">
              <mxPoint x="610" y="623.0000000000001" />
            </Array>
            <mxPoint x="610" y="603.0000000000001" as="sourcePoint" />
          </mxGeometry>
        </mxCell>
        <mxCell id="Sqh9jJfDOOYjsBS7LKp8-182" style="edgeStyle=orthogonalEdgeStyle;rounded=0;orthogonalLoop=1;jettySize=auto;html=1;exitX=0.5;exitY=1;exitDx=0;exitDy=0;" edge="1" parent="1">
          <mxGeometry relative="1" as="geometry">
            <mxPoint x="759.9999999999998" y="623.0000000000001" as="targetPoint" />
            <Array as="points">
              <mxPoint x="910" y="623.0000000000001" />
            </Array>
            <mxPoint x="910" y="603.0000000000001" as="sourcePoint" />
          </mxGeometry>
        </mxCell>
        <mxCell id="Sqh9jJfDOOYjsBS7LKp8-184" value="cout &amp;lt;&amp;lt; &quot;Ввод скобок корректен.&quot; &amp;lt;&amp;lt; endl;" style="shape=parallelogram;perimeter=parallelogramPerimeter;whiteSpace=wrap;html=1;fixedSize=1;" vertex="1" parent="1">
          <mxGeometry x="550" y="570" width="160" height="30" as="geometry" />
        </mxCell>
        <mxCell id="Sqh9jJfDOOYjsBS7LKp8-185" value="cout &amp;lt;&amp;lt; &quot;Ввод скобок некорректен.&quot; &amp;lt;&amp;lt; endl;" style="shape=parallelogram;perimeter=parallelogramPerimeter;whiteSpace=wrap;html=1;fixedSize=1;" vertex="1" parent="1">
          <mxGeometry x="820" y="570" width="160" height="30" as="geometry" />
        </mxCell>
        <mxCell id="Sqh9jJfDOOYjsBS7LKp8-186" value="" style="endArrow=classic;html=1;rounded=0;" edge="1" parent="1">
          <mxGeometry width="50" height="50" relative="1" as="geometry">
            <mxPoint x="760" y="620" as="sourcePoint" />
            <mxPoint x="760" y="650" as="targetPoint" />
          </mxGeometry>
        </mxCell>
        <mxCell id="Sqh9jJfDOOYjsBS7LKp8-188" style="edgeStyle=orthogonalEdgeStyle;rounded=0;orthogonalLoop=1;jettySize=auto;html=1;exitX=0.5;exitY=1;exitDx=0;exitDy=0;" edge="1" parent="1" source="Sqh9jJfDOOYjsBS7LKp8-187">
          <mxGeometry relative="1" as="geometry">
            <mxPoint x="760.0909090909092" y="700" as="targetPoint" />
          </mxGeometry>
        </mxCell>
        <mxCell id="Sqh9jJfDOOYjsBS7LKp8-187" value="del_s(s);" style="rounded=0;whiteSpace=wrap;html=1;" vertex="1" parent="1">
          <mxGeometry x="700" y="650.0000000000001" width="120" height="30" as="geometry" />
        </mxCell>
        <mxCell id="Sqh9jJfDOOYjsBS7LKp8-189" value="return 0;" style="ellipse;whiteSpace=wrap;html=1;" vertex="1" parent="1">
          <mxGeometry x="700" y="700" width="120" height="40" as="geometry" />
        </mxCell>
        <mxCell id="Sqh9jJfDOOYjsBS7LKp8-190" value="}" style="text;html=1;align=center;verticalAlign=middle;resizable=0;points=[];autosize=1;strokeColor=none;fillColor=none;" vertex="1" parent="1">
          <mxGeometry x="795" y="728" width="30" height="30" as="geometry" />
        </mxCell>
        <mxCell id="Sqh9jJfDOOYjsBS7LKp8-191" value="{" style="text;html=1;align=center;verticalAlign=middle;resizable=0;points=[];autosize=1;strokeColor=none;fillColor=none;" vertex="1" parent="1">
          <mxGeometry x="205" y="168" width="30" height="30" as="geometry" />
        </mxCell>
        <mxCell id="Sqh9jJfDOOYjsBS7LKp8-192" value="{" style="text;html=1;align=center;verticalAlign=middle;resizable=0;points=[];autosize=1;strokeColor=none;fillColor=none;" vertex="1" parent="1">
          <mxGeometry x="225" y="448" width="30" height="30" as="geometry" />
        </mxCell>
        <mxCell id="Sqh9jJfDOOYjsBS7LKp8-193" value="1" style="text;html=1;align=center;verticalAlign=middle;resizable=0;points=[];autosize=1;strokeColor=none;fillColor=none;" vertex="1" parent="1">
          <mxGeometry x="185" y="518" width="30" height="30" as="geometry" />
        </mxCell>
        <mxCell id="Sqh9jJfDOOYjsBS7LKp8-194" value="0" style="text;html=1;align=center;verticalAlign=middle;resizable=0;points=[];autosize=1;strokeColor=none;fillColor=none;" vertex="1" parent="1">
          <mxGeometry x="435" y="518" width="30" height="30" as="geometry" />
        </mxCell>
        <mxCell id="Sqh9jJfDOOYjsBS7LKp8-195" value="}" style="text;html=1;align=center;verticalAlign=middle;resizable=0;points=[];autosize=1;strokeColor=none;fillColor=none;" vertex="1" parent="1">
          <mxGeometry x="335" y="668" width="30" height="30" as="geometry" />
        </mxCell>
        <mxCell id="Sqh9jJfDOOYjsBS7LKp8-196" value="1" style="text;html=1;align=center;verticalAlign=middle;resizable=0;points=[];autosize=1;strokeColor=none;fillColor=none;" vertex="1" parent="1">
          <mxGeometry x="2235" y="418" width="30" height="30" as="geometry" />
        </mxCell>
        <mxCell id="Sqh9jJfDOOYjsBS7LKp8-197" value="0" style="text;html=1;align=center;verticalAlign=middle;resizable=0;points=[];autosize=1;strokeColor=none;fillColor=none;" vertex="1" parent="1">
          <mxGeometry x="2435" y="418" width="30" height="30" as="geometry" />
        </mxCell>
        <mxCell id="Sqh9jJfDOOYjsBS7LKp8-198" value="1" style="text;html=1;align=center;verticalAlign=middle;resizable=0;points=[];autosize=1;strokeColor=none;fillColor=none;" vertex="1" parent="1">
          <mxGeometry x="2085" y="508" width="30" height="30" as="geometry" />
        </mxCell>
        <mxCell id="Sqh9jJfDOOYjsBS7LKp8-199" value="0" style="text;html=1;align=center;verticalAlign=middle;resizable=0;points=[];autosize=1;strokeColor=none;fillColor=none;" vertex="1" parent="1">
          <mxGeometry x="2305" y="518" width="30" height="30" as="geometry" />
        </mxCell>
        <mxCell id="Sqh9jJfDOOYjsBS7LKp8-200" value="1" style="text;html=1;align=center;verticalAlign=middle;resizable=0;points=[];autosize=1;strokeColor=none;fillColor=none;" vertex="1" parent="1">
          <mxGeometry x="1915" y="338" width="30" height="30" as="geometry" />
        </mxCell>
        <mxCell id="Sqh9jJfDOOYjsBS7LKp8-201" value="0" style="text;html=1;align=center;verticalAlign=middle;resizable=0;points=[];autosize=1;strokeColor=none;fillColor=none;" vertex="1" parent="1">
          <mxGeometry x="2135" y="338" width="30" height="30" as="geometry" />
        </mxCell>
        <mxCell id="Sqh9jJfDOOYjsBS7LKp8-202" value="{" style="text;html=1;align=center;verticalAlign=middle;resizable=0;points=[];autosize=1;strokeColor=none;fillColor=none;" vertex="1" parent="1">
          <mxGeometry x="1835" y="388" width="30" height="30" as="geometry" />
        </mxCell>
        <mxCell id="Sqh9jJfDOOYjsBS7LKp8-203" value="}" style="text;html=1;align=center;verticalAlign=middle;resizable=0;points=[];autosize=1;strokeColor=none;fillColor=none;" vertex="1" parent="1">
          <mxGeometry x="1865" y="668" width="30" height="30" as="geometry" />
        </mxCell>
        <mxCell id="Sqh9jJfDOOYjsBS7LKp8-204" value="{" style="text;html=1;align=center;verticalAlign=middle;resizable=0;points=[];autosize=1;strokeColor=none;fillColor=none;" vertex="1" parent="1">
          <mxGeometry x="2005" y="558" width="30" height="30" as="geometry" />
        </mxCell>
        <mxCell id="Sqh9jJfDOOYjsBS7LKp8-205" value="}" style="text;html=1;align=center;verticalAlign=middle;resizable=0;points=[];autosize=1;strokeColor=none;fillColor=none;" vertex="1" parent="1">
          <mxGeometry x="2075" y="758" width="30" height="30" as="geometry" />
        </mxCell>
        <mxCell id="Sqh9jJfDOOYjsBS7LKp8-206" value="{" style="text;html=1;align=center;verticalAlign=middle;resizable=0;points=[];autosize=1;strokeColor=none;fillColor=none;" vertex="1" parent="1">
          <mxGeometry x="2265" y="578" width="30" height="30" as="geometry" />
        </mxCell>
        <mxCell id="Sqh9jJfDOOYjsBS7LKp8-208" value="}" style="text;html=1;align=center;verticalAlign=middle;resizable=0;points=[];autosize=1;strokeColor=none;fillColor=none;" vertex="1" parent="1">
          <mxGeometry x="2375" y="778" width="30" height="30" as="geometry" />
        </mxCell>
      </root>
    </mxGraphModel>
  </diagram>
</mxfile>
